<svg xmlns="http://www.w3.org/2000/svg" xmlns:xlink="http://www.w3.org/1999/xlink" width="625.101" height="60.384" viewBox="0 0 625.101 60.384">
  <defs>
    <clipPath id="clip-path">
      <rect id="Rectangle_78" data-name="Rectangle 78" width="625.101" height="60.384" transform="translate(48.506 0)" fill="none"/>
    </clipPath>
  </defs>
  <g id="Group_56" data-name="Group 56" transform="translate(-48.506 0)">
    <g id="Group_55" data-name="Group 55" clip-path="url(#clip-path)">
      <path id="Path_548" data-name="Path 548" d="M165.244,60.384a6.5,6.5,0,0,0,6.495-6.495v-44A9.89,9.89,0,0,1,181.628,0H148.136a9.888,9.888,0,0,0-9.888,9.889V60.384Z" fill="#479b8d"/>
      <path id="Path_549" data-name="Path 549" d="M196.643,50.117,215.482,9.889C217.819,4.883,219.91,0,225.372,0h33.492c-5.461,0-7.553,4.651-9.889,9.889l-18.84,40.228c-2.315,4.773-4.427,9.891-9.889,9.891H186.754c5.462,0,7.574-5.351,9.889-9.891" fill="#479b8d"/>
      <path id="Path_551" data-name="Path 551" d="M58.4,50.117,77.234,9.889C79.571,4.883,81.662,0,87.124,0h33.492c-5.461,0-7.553,4.651-9.889,9.889L91.887,50.117C89.572,54.89,87.46,60.008,82,60.008H48.506c5.462,0,7.574-5.351,9.889-9.891" fill="#479b8d"/>
      <path id="Path_552" data-name="Path 552" d="M303.492,60.384a6.5,6.5,0,0,0,6.495-6.495v-44A9.89,9.89,0,0,1,319.876,0H286.384A9.888,9.888,0,0,0,276.5,9.889V60.384Z" fill="#479b8d"/>
      <path id="Path_553" data-name="Path 553" d="M334.891,50.117,353.73,9.889C356.067,4.883,358.158,0,363.62,0h33.492c-5.461,0-7.553,4.651-9.889,9.889l-18.84,40.228c-2.315,4.773-4.427,9.891-9.889,9.891H325c5.462,0,7.574-5.351,9.889-9.891" fill="#479b8d"/>
      <path id="Path_554" data-name="Path 554" d="M441.739,60.384a6.5,6.5,0,0,0,6.495-6.495v-44A9.89,9.89,0,0,1,458.123,0H424.631a9.888,9.888,0,0,0-9.888,9.889V60.384Z" fill="#479b8d"/>
      <path id="Path_555" data-name="Path 555" d="M473.138,50.117,491.977,9.889C494.314,4.883,496.4,0,501.867,0h33.492c-5.461,0-7.553,4.651-9.889,9.889L506.63,50.117c-2.315,4.773-4.427,9.891-9.889,9.891H463.249c5.462,0,7.574-5.351,9.889-9.891" fill="#479b8d"/>
      <path id="Path_556" data-name="Path 556" d="M579.987,60.384a6.5,6.5,0,0,0,6.495-6.495v-44A9.89,9.89,0,0,1,596.371,0H562.879a9.888,9.888,0,0,0-9.888,9.889V60.384Z" fill="#479b8d"/>
      <path id="Path_557" data-name="Path 557" d="M611.386,50.117,630.225,9.889C632.562,4.883,634.653,0,640.115,0h33.492c-5.461,0-7.553,4.651-9.889,9.889l-18.84,40.228c-2.315,4.773-4.427,9.891-9.889,9.891H601.5c5.462,0,7.574-5.351,9.889-9.891" fill="#479b8d"/>
    </g>
  </g>
</svg>
