<svg id="Group_2" data-name="Group 2" xmlns="http://www.w3.org/2000/svg" xmlns:xlink="http://www.w3.org/1999/xlink" width="143.257" height="59.085" viewBox="0 0 143.257 59.085">
  <defs>
    <clipPath id="clip-path">
      <rect id="Rectangle_2" data-name="Rectangle 2" width="143.257" height="59.085" fill="#fff"/>
    </clipPath>
  </defs>
  <g id="Group_1" data-name="Group 1" clip-path="url(#clip-path)">
    <path id="Path_1" data-name="Path 1" d="M8.935,165.209q0,4.376-2.857,4.377-3.084,0-3.084-4.377a15.168,15.168,0,0,1,.635-4.354l-3.107.567A16.158,16.158,0,0,0,0,165.481q0,6.44,5.828,6.441a5.824,5.824,0,0,0,4.524-1.723,7.514,7.514,0,0,0,1.576-5.216V150.718H8.935Z" transform="translate(0 -112.837)" fill="#fff"/>
    <path id="Path_2" data-name="Path 2" d="M87.864,163.417a2.88,2.88,0,0,1-1.293-2.449,2.82,2.82,0,0,1,.794-2.086,2.792,2.792,0,0,1,2.064-.794,5.624,5.624,0,0,1,2.359.476l.522-2.381-.363-.114a7.417,7.417,0,0,0-1.066-.215,9.614,9.614,0,0,0-1.383-.1,6.048,6.048,0,0,0-4.388,1.485,4.981,4.981,0,0,0-1.531,3.731,4.188,4.188,0,0,0,.488,2.018,3.384,3.384,0,0,0,1.259,1.361H80.312v-3.379a5.448,5.448,0,0,0-1.27-3.844,5.007,5.007,0,0,0-3.855-1.372,5.775,5.775,0,0,0-4.343,1.6,5.4,5.4,0,0,0-1.554,3.912,3.79,3.79,0,0,1-.578,2.381,2.035,2.035,0,0,1-1.667.7H64.89v-13.63H61.9v15.988h5.465q2.54,0,3.22-1.746a4.1,4.1,0,0,0,1.746,1.315,9.515,9.515,0,0,0,3.334.431H93.51v-2.359H91.741a6.637,6.637,0,0,1-3.878-.93m-10.478.93H75.663a3.642,3.642,0,0,1-2.574-.782,3.146,3.146,0,0,1-.828-2.393,3.287,3.287,0,0,1,.726-2.211,2.458,2.458,0,0,1,1.973-.85q2.426,0,2.427,3.22Z" transform="translate(-46.34 -112.836)" fill="#fff"/>
    <path id="Path_3" data-name="Path 3" d="M200.928,162.173l-3.311-12.087-2.993.408,3.243,11.679Z" transform="translate(-145.707 -112.363)" fill="#fff"/>
    <path id="Path_4" data-name="Path 4" d="M205.4,164.347h-6.985v2.359h9.978V150.717H205.4Z" transform="translate(-148.544 -112.836)" fill="#fff"/>
    <rect id="Rectangle_1" data-name="Rectangle 1" width="2.993" height="15.988" transform="translate(63.499 37.881)" fill="#fff"/>
    <path id="Path_5" data-name="Path 5" d="M331.35,157a1.4,1.4,0,0,0,1.043-.442,1.432,1.432,0,0,0,.431-1.032,1.4,1.4,0,0,0-.442-1.043,1.434,1.434,0,0,0-1.032-.431,1.4,1.4,0,0,0-1.043.442A1.469,1.469,0,0,0,331.35,157" transform="translate(-246.965 -115.336)" fill="#fff"/>
    <path id="Path_6" data-name="Path 6" d="M316.914,157a1.409,1.409,0,0,0,1.054-.431,1.438,1.438,0,0,0,.42-1.043,1.411,1.411,0,0,0-.431-1.055,1.441,1.441,0,0,0-1.043-.419,1.4,1.4,0,0,0-1.043.442,1.479,1.479,0,0,0-.011,2.075,1.409,1.409,0,0,0,1.054.431" transform="translate(-236.158 -115.336)" fill="#fff"/>
    <path id="Path_7" data-name="Path 7" d="M308.486,179.816h-3.062q-3.13,0-4.388-1.111a4.554,4.554,0,0,1-1.258-3.583,8.542,8.542,0,0,1,.794-3.742l-3.22.522a10.289,10.289,0,0,0-.589,3.56,6.324,6.324,0,0,0,1.939,4.989q1.939,1.724,6.384,1.724h6.4V171.516h-2.993Z" transform="translate(-222.174 -128.306)" fill="#fff"/>
    <path id="Path_8" data-name="Path 8" d="M382.479,155.752a5.776,5.776,0,0,0-4.343,1.6,5.4,5.4,0,0,0-1.554,3.912,3.761,3.761,0,0,0,1.27,3.243l-.136-.023a2.972,2.972,0,0,0-.454-.09,4.831,4.831,0,0,0-.68-.045H372.84v-13.63h-2.993v15.988H387.6v-5.738a5.448,5.448,0,0,0-1.27-3.844,5.007,5.007,0,0,0-3.855-1.372m2.2,8.595h-1.723a3.641,3.641,0,0,1-2.574-.782,3.145,3.145,0,0,1-.828-2.393,3.287,3.287,0,0,1,.726-2.211,2.457,2.457,0,0,1,1.973-.85q2.426,0,2.426,3.22Z" transform="translate(-276.89 -112.836)" fill="#fff"/>
    <path id="Path_9" data-name="Path 9" d="M505.853,157.1a1.588,1.588,0,1,0-1.1-.465,1.5,1.5,0,0,0,1.1.465" transform="translate(-377.541 -115.268)" fill="#fff"/>
    <path id="Path_10" data-name="Path 10" d="M475.663,150.718v13.63H471.9a18.051,18.051,0,0,0,.091-1.837,6.616,6.616,0,0,0-1.69-4.966q-1.689-1.633-5.431-1.633a15.582,15.582,0,0,0-2.812.25V158.5a15.544,15.544,0,0,1,2.54-.227,3.772,3.772,0,0,1,4.422,4.354,13.966,13.966,0,0,1-.114,1.724H460.06a9.2,9.2,0,0,0-2.075-5.794,10.825,10.825,0,0,0-5.477-3.05L451.783,158a7.28,7.28,0,0,1,3.946,2.245,6.732,6.732,0,0,1,1.406,4.1h-6.713v2.358h28.234V150.718Z" transform="translate(-337.213 -112.837)" fill="#fff"/>
    <path id="Path_11" data-name="Path 11" d="M7.864,64.608A1.632,1.632,0,0,0,9.5,62.976V44.424a2.486,2.486,0,0,1,2.485-2.485H3.564a2.485,2.485,0,0,0-2.485,2.485V64.608Z" transform="translate(-0.808 -31.398)" fill="#fff"/>
    <path id="Path_12" data-name="Path 12" d="M52.071,54.534l4.735-10.111c.587-1.258,1.113-2.485,2.485-2.485h8.418c-1.373,0-1.9,1.169-2.486,2.485L60.489,54.534c-.582,1.2-1.113,2.486-2.485,2.486H49.585c1.373,0,1.9-1.345,2.486-2.486" transform="translate(-37.122 -31.397)" fill="#fff"/>
    <path id="Path_13" data-name="Path 13" d="M92.321,64.608a1.632,1.632,0,0,1-1.632-1.632V44.424A2.486,2.486,0,0,0,88.2,41.939h8.418a2.485,2.485,0,0,1,2.485,2.485V64.608Z" transform="translate(-66.034 -31.398)" fill="#fff"/>
    <path id="Path_14" data-name="Path 14" d="M26.606,54.534,21.871,44.423c-.587-1.258-1.113-2.485-2.486-2.485H10.967c1.373,0,1.9,1.169,2.485,2.485l4.735,10.111c.582,1.2,1.113,2.486,2.485,2.486h8.418c-1.373,0-1.9-1.345-2.485-2.486" transform="translate(-8.211 -31.397)" fill="#fff"/>
    <path id="Path_15" data-name="Path 15" d="M99.879,4.385A4.385,4.385,0,1,1,95.493,0a4.385,4.385,0,0,1,4.385,4.385" transform="translate(-68.209)" fill="#fff"/>
    <path id="Path_16" data-name="Path 16" d="M141.382,59.376a2.262,2.262,0,0,1,.55-1.283l1.13-1.465a7.863,7.863,0,0,1,.778-.992.876.876,0,0,1,.626-.29,1.669,1.669,0,0,1,.671.183,11.878,11.878,0,0,1,1.1.611q.092.061,1.557,1.068a5.728,5.728,0,0,0,3.664.885,1.729,1.729,0,0,0,1.145-.412,1.221,1.221,0,0,0,.412-.931,1.747,1.747,0,0,0-.733-1.343,3.552,3.552,0,0,0-2.076-.7h.031a14.788,14.788,0,0,1-4.183-1.389,5.306,5.306,0,0,1-2.137-2,6.907,6.907,0,0,1-.763-2.87,6.345,6.345,0,0,1,.855-3.679,6.873,6.873,0,0,1,2.809-2.625,8.93,8.93,0,0,1,4.213-.962,12.555,12.555,0,0,1,3.542.519,12.318,12.318,0,0,1,2.671,1.053,6.379,6.379,0,0,1,1.908,1.511,1.192,1.192,0,0,1,.428.794,1.216,1.216,0,0,1-.229.656,8.633,8.633,0,0,1-.778.962l-.885.947a5.456,5.456,0,0,1-.657.626.754.754,0,0,1-.443.168,1.229,1.229,0,0,1-.549-.183q-.337-.183-.657-.382l-.565-.351a7.16,7.16,0,0,0-3.694-1.343,2.326,2.326,0,0,0-1.542.473,1.444,1.444,0,0,0-.565,1.145,1.642,1.642,0,0,0,.55,1.206,2.761,2.761,0,0,0,1.557.687,12.514,12.514,0,0,1,6.518,2.6,5.769,5.769,0,0,1,2.152,4.4,6.21,6.21,0,0,1-1.145,3.527,8.415,8.415,0,0,1-3.175,2.748,9.7,9.7,0,0,1-4.534,1.053,14.315,14.315,0,0,1-8.213-2.87q-1.344-.916-1.343-1.74" transform="translate(-105.847 -30.83)" fill="#fff"/>
    <path id="Path_17" data-name="Path 17" d="M221.31,63.88a3.21,3.21,0,0,1,.168-1.023c.112-.336.178-.524.2-.565L228.454,45.1a2.18,2.18,0,0,1,.809-.992,2.451,2.451,0,0,1,1.267-.382h4.4a2.251,2.251,0,0,1,1.313.428,1.968,1.968,0,0,1,.7.947l6.839,17.189q.03.153.183.626a2.944,2.944,0,0,1,.153.9q0,1.1-1.221,1.282h-4.183a2.338,2.338,0,0,1-1.084-.229,1.05,1.05,0,0,1-.565-.657l-.947-3.053h-6.809l-.947,3.053a1.059,1.059,0,0,1-.549.657,2.246,2.246,0,0,1-1.068.229H222.5q-1.191-.184-1.191-1.221M233.034,56h1.985l-2.412-7.175L230.225,56Z" transform="translate(-165.686 -32.739)" fill="#fff"/>
    <path id="Path_18" data-name="Path 18" d="M323.224,63.758V45.073a1.355,1.355,0,0,1,1.343-1.343h8.243a10.848,10.848,0,0,1,5.45,1.45,11.168,11.168,0,0,1,4.061,3.908,10.1,10.1,0,0,1-.015,10.655,11.252,11.252,0,0,1-4.091,3.908,10.931,10.931,0,0,1-5.465,1.45h-8.182a1.355,1.355,0,0,1-1.343-1.343m9.648-5.221a3.318,3.318,0,0,0,1.878-.58,4.233,4.233,0,0,0,1.4-1.6,4.946,4.946,0,0,0,.015-4.442,4.272,4.272,0,0,0-1.389-1.6,3.262,3.262,0,0,0-1.878-.6h-2.839a.451.451,0,0,0-.351.153.57.57,0,0,0-.137.4v7.724a.569.569,0,0,0,.137.4.45.45,0,0,0,.351.153Z" transform="translate(-241.985 -32.739)" fill="#fff"/>
    <path id="Path_19" data-name="Path 19" d="M420.379,49.559v2.473h8.61a1.2,1.2,0,0,1,.87.382,1.305,1.305,0,0,1,.382.962v2.656a1.335,1.335,0,0,1-.382.931,1.16,1.16,0,0,1-.87.412h-8.61v2.717h9.037a1.234,1.234,0,0,1,.9.382,1.343,1.343,0,0,1,.382.992v2.626a1.371,1.371,0,0,1-.382.962,1.191,1.191,0,0,1-.9.412h-14.41a1.189,1.189,0,0,1-.9-.412,1.369,1.369,0,0,1-.382-.962V45.559a1.3,1.3,0,0,1,.382-.962,1.232,1.232,0,0,1,.9-.382h14.41a1.234,1.234,0,0,1,.9.382,1.305,1.305,0,0,1,.382.962v2.656a1.311,1.311,0,0,1-.4.931,1.207,1.207,0,0,1-.886.412Z" transform="translate(-309.738 -33.103)" fill="#fff"/>
    <path id="Path_20" data-name="Path 20" d="M508.2,63.177a4.372,4.372,0,0,0-1.389-2.885,4.994,4.994,0,0,0-2.61-.962,3.8,3.8,0,0,0-.519-.03,1.918,1.918,0,0,0-.519.061l-.031.031V63.3a3.3,3.3,0,0,1-.107.931,1.007,1.007,0,0,1-.58.58,3.59,3.59,0,0,1-1.481.229h-2.839a2.441,2.441,0,0,1-1.5-.351,1.213,1.213,0,0,1-.55-1.053l.03-8.243V44.767a1.011,1.011,0,0,1,.458-.809,1.756,1.756,0,0,1,1.1-.351H504.6q4.58-.03,6.778,1.542a6.085,6.085,0,0,1,2.381,4.931,2.692,2.692,0,0,1,.015.473c-.01.112-.015.209-.015.29v.641a5.377,5.377,0,0,1-.931,2.809,8.748,8.748,0,0,1-2.061,1.923l.031.031a5.823,5.823,0,0,1,2.381,2.107,8.6,8.6,0,0,1,1.206,2.87,10.377,10.377,0,0,1,.259,2.687,1.016,1.016,0,0,1-.366.824,1.578,1.578,0,0,1-1.038.305h-3.725q-.794,0-1.023-.4a1.778,1.778,0,0,1-.244-.839,5.71,5.71,0,0,0-.046-.626m-4.549-9.556a6.485,6.485,0,0,0,2.58-.5q1.175-.5,1.175-2.336a2.441,2.441,0,0,0-.778-1.954,3.34,3.34,0,0,0-2.244-.672h-2.5V53.62h1.771Z" transform="translate(-371.396 -32.646)" fill="#fff"/>
    <path id="Path_21" data-name="Path 21" d="M15.621,4.385A4.385,4.385,0,1,1,11.235,0a4.385,4.385,0,0,1,4.385,4.385" transform="translate(-5.128)" fill="#fff"/>
  </g>
</svg>
